<svg width="113" height="24" viewBox="0 0 113 24" fill="none" xmlns="http://www.w3.org/2000/svg">
<path fill-rule="evenodd" clip-rule="evenodd" d="M65.9561 0H67.7685V7.79221H65.9561V0ZM2.4325 11.1023C2.5298 9.61096 3.69741 8.14367 5.61909 8.14367C7.68672 8.14367 8.78135 9.44258 8.83 11.1023H2.4325ZM9.17055 14.109C8.7327 15.4079 7.78402 16.4422 5.88666 16.4422C3.91633 16.4422 2.40818 14.999 2.35953 12.9304H11.1652C11.1895 12.7861 11.2139 12.4974 11.2139 12.2088C11.2139 8.60068 9.19488 6.14719 5.59477 6.14719C2.65143 6.14719 0 8.62474 0 12.2569C0 16.1777 2.74873 18.4387 5.88666 18.4387C8.61108 18.4387 10.4841 16.8271 11.1409 14.7825L9.17055 14.109ZM13.4029 14.975C13.4029 16.8031 14.9354 18.4387 17.3193 18.4387C19.4112 18.4387 20.5788 17.3322 21.0897 16.5145C21.0897 17.3564 21.1627 17.7893 21.2112 18.0779H23.4491C23.4006 17.7893 23.3032 17.1879 23.3032 16.1777V10.3807C23.3032 8.11961 21.9411 6.14719 18.4382 6.14719C15.9084 6.14719 13.8894 7.68664 13.6462 9.89959L15.8354 10.4047C15.9814 9.05771 16.8814 8.0715 18.4869 8.0715C20.2626 8.0715 21.0167 9.0096 21.0167 10.1401C21.0167 10.5491 20.8221 10.9099 20.1167 11.0061L16.9544 11.4631C14.9354 11.7518 13.4029 12.9063 13.4029 14.975ZM17.6356 16.5385C16.4679 16.5385 15.7381 15.7206 15.7381 14.8547C15.7381 13.8204 16.4679 13.2671 17.4409 13.1228L21.0167 12.5936V13.1228C21.0167 15.6485 19.5085 16.5385 17.6356 16.5385ZM26.0139 18.7033C26.3058 21.1809 28.4951 23.009 31.4141 23.009C35.8169 23.009 37.2764 20.1466 37.2764 17.2121V6.50801H35.0142V8.11961C34.4305 6.96502 33.2141 6.29152 31.4141 6.29152C28.2032 6.29152 26.0382 8.79312 26.0382 11.9201C26.0382 15.1915 28.3006 17.5247 31.4141 17.5247C33.1656 17.5247 34.4305 16.6828 34.99 15.6245V17.2842C34.99 19.7858 33.871 21.0366 31.4141 21.0366C29.6385 21.0366 28.3978 19.8098 28.2276 18.1982L26.0139 18.7033ZM31.7547 15.6245C29.687 15.6245 28.3735 14.1812 28.3735 11.9201C28.3735 9.68311 29.7357 8.21582 31.7547 8.21582C33.7251 8.21582 35.0872 9.68311 35.0872 11.9201C35.0872 14.1571 33.7251 15.6245 31.7547 15.6245ZM43.2148 18.0779V0.662903H40.9282V18.0779H43.2148ZM78.7115 11.1023C78.8087 9.61096 79.9764 8.14367 81.898 8.14367C83.9656 8.14367 85.0603 9.44258 85.109 11.1023H78.7115ZM85.4494 14.109C85.0116 15.4079 84.063 16.4422 82.1656 16.4422C80.1967 16.4422 78.6894 15.0012 78.6385 12.935H78.7175V12.9304H87.4442C87.4684 12.7861 87.4929 12.4974 87.4929 12.2088C87.4929 8.60068 85.4738 6.14719 81.8738 6.14719C79.2513 6.14719 76.8606 8.1139 76.3705 11.1117H70.8374V12.935H76.3073C76.6055 16.4372 79.2133 18.4387 82.1656 18.4387C84.8899 18.4387 86.763 16.8271 87.4197 14.7825L85.4494 14.109ZM93.3306 22.9128L100.944 6.50801H98.4876L94.9848 14.4939L91.336 6.50801H88.7089L93.7441 16.8031L90.8252 22.9128H93.3306ZM104.153 11.1023C104.25 9.61096 105.418 8.14367 107.34 8.14367C109.407 8.14367 110.502 9.44258 110.551 11.1023H104.153ZM110.891 14.109C110.453 15.4079 109.505 16.4422 107.607 16.4422C105.637 16.4422 104.129 14.999 104.08 12.9304H112.886C112.91 12.7861 112.934 12.4974 112.934 12.2088C112.934 8.60068 110.915 6.14719 107.315 6.14719C104.372 6.14719 101.72 8.62474 101.72 12.2569C101.72 16.1777 104.469 18.4387 107.607 18.4387C110.331 18.4387 112.205 16.8271 112.861 14.7825L110.891 14.109ZM51.9296 8.15232C53.8513 8.15232 55.0189 9.6196 55.1162 11.1109H48.7188C48.7673 9.45123 49.862 8.15232 51.9296 8.15232ZM51.6621 16.4509C49.7647 16.4509 48.816 15.4166 48.3782 14.1177L46.4078 14.7912C47.0646 16.8358 48.9377 18.4474 51.6621 18.4474C54.6168 18.4474 57.2265 16.4426 57.5211 12.935H62.8781V11.1117H57.4558C56.9624 8.11878 54.5738 6.15584 51.954 6.15584C48.3539 6.15584 46.3349 8.60935 46.3349 12.2174C46.3349 12.5061 46.3591 12.7947 46.3836 12.939H55.1892C55.1405 15.0077 53.6324 16.4509 51.6621 16.4509ZM67.7685 16.2078H65.9561V24H67.7685V16.2078Z" fill="white"/>
</svg>
