<svg width="18" height="18" viewBox="0 0 18 18" fill="none" xmlns="http://www.w3.org/2000/svg">
<path d="M6.81827 8.2729C6.81827 7.46958 6.16705 6.81836 5.36373 6.81836C4.5604 6.81836 3.90918 7.46958 3.90918 8.2729V11.182C3.90918 11.9853 4.5604 12.6365 5.36373 12.6365C6.16705 12.6365 6.81827 11.9853 6.81827 11.182V8.2729Z" stroke="white" stroke-linecap="round" stroke-linejoin="round"/>
<path d="M14.091 8.2729C14.091 7.46958 13.4398 6.81836 12.6364 6.81836C11.8331 6.81836 11.1819 7.46958 11.1819 8.2729V11.182C11.1819 11.9853 11.8331 12.6365 12.6364 12.6365C13.4398 12.6365 14.091 11.9853 14.091 11.182V8.2729Z" stroke="white" stroke-linecap="round" stroke-linejoin="round"/>
<path d="M1 9.72727V9C1 6.87827 1.84286 4.84344 3.34315 3.34315C4.84344 1.84286 6.87827 1 9 1V1C11.1217 1 13.1566 1.84286 14.6568 3.34315C16.1571 4.84344 17 6.87827 17 9V12.6364C17 13.4079 16.6935 14.1478 16.1479 14.6934C15.6024 15.239 14.8624 15.5455 14.0909 15.5455H10.4545" stroke="white" stroke-linecap="round" stroke-linejoin="round"/>
<path d="M8.99996 16.9999C9.80328 16.9999 10.4545 16.3487 10.4545 15.5454C10.4545 14.742 9.80328 14.0908 8.99996 14.0908C8.19663 14.0908 7.54541 14.742 7.54541 15.5454C7.54541 16.3487 8.19663 16.9999 8.99996 16.9999Z" stroke="white" stroke-linecap="round" stroke-linejoin="round"/>
</svg>
