<svg width="16" height="16" viewBox="0 0 16 16" xmlns="http://www.w3.org/2000/svg">
<g>
<path d="M5.09093 0.727051H2.18184C1.37852 0.727051 0.727295 1.37827 0.727295 2.1816V5.09069C0.727295 5.89401 1.37852 6.54523 2.18184 6.54523H5.09093C5.89425 6.54523 6.54548 5.89401 6.54548 5.09069V2.1816C6.54548 1.37827 5.89425 0.727051 5.09093 0.727051Z" stroke="white" stroke-linecap="round" stroke-linejoin="round"/>
<path d="M13.8182 0.727051H10.9091C10.1058 0.727051 9.45459 1.37827 9.45459 2.1816V5.09069C9.45459 5.89401 10.1058 6.54523 10.9091 6.54523H13.8182C14.6215 6.54523 15.2728 5.89401 15.2728 5.09069V2.1816C15.2728 1.37827 14.6215 0.727051 13.8182 0.727051Z" stroke="white" stroke-linecap="round" stroke-linejoin="round"/>
<path d="M5.09093 9.4541H2.18184C1.37852 9.4541 0.727295 10.1053 0.727295 10.9086V13.8177C0.727295 14.6211 1.37852 15.2723 2.18184 15.2723H5.09093C5.89425 15.2723 6.54548 14.6211 6.54548 13.8177V10.9086C6.54548 10.1053 5.89425 9.4541 5.09093 9.4541Z" stroke="white" stroke-linecap="round" stroke-linejoin="round"/>
<path d="M13.8182 9.4541H10.9091C10.1058 9.4541 9.45459 10.1053 9.45459 10.9086V13.8177C9.45459 14.6211 10.1058 15.2723 10.9091 15.2723H13.8182C14.6215 15.2723 15.2728 14.6211 15.2728 13.8177V10.9086C15.2728 10.1053 14.6215 9.4541 13.8182 9.4541Z" stroke="white" stroke-linecap="round" stroke-linejoin="round"/>
</g>
</svg>
