<svg width="17" height="18" viewBox="0 0 17 18" fill="none" xmlns="http://www.w3.org/2000/svg">
<path d="M14.0644 10.1345C14.2098 9.38517 14.2098 8.61483 14.0644 7.86546L15.3734 6.78183C15.5497 6.63463 15.6687 6.43032 15.7099 6.20444C15.7511 5.97856 15.7118 5.74538 15.5989 5.54546L14.9662 4.45455C14.8517 4.25583 14.6708 4.10384 14.4553 4.02535C14.2398 3.94687 14.0035 3.94692 13.788 4.02547L12.188 4.62909C11.6177 4.12472 10.9526 3.73903 10.2316 3.49455L9.948 1.80727C9.91157 1.5812 9.79554 1.37561 9.62083 1.22757C9.44613 1.07954 9.22426 0.998832 8.99527 1.00001H7.72982C7.50123 1.0003 7.28014 1.08153 7.10574 1.2293C6.93134 1.37708 6.81491 1.58184 6.7771 1.80727L6.49346 3.49455C5.77187 3.7412 5.10676 4.12939 4.5371 4.63637L2.9371 4.03275C2.72162 3.9542 2.48534 3.95415 2.26984 4.03263C2.05434 4.11112 1.87342 4.26311 1.75892 4.46183L1.13347 5.55274C1.01683 5.75109 0.974732 5.98452 1.01472 6.21112C1.05471 6.43772 1.17417 6.64264 1.35165 6.78909L2.66801 7.87274C2.51296 8.62115 2.51296 9.39341 2.66801 10.1418L1.35165 11.2254C1.17417 11.3719 1.05471 11.5768 1.01472 11.8034C0.974732 12.03 1.01683 12.2635 1.13347 12.4618L1.75892 13.5527C1.87342 13.7515 2.05434 13.9034 2.26984 13.9819C2.48534 14.0604 2.72162 14.0604 2.9371 13.9818L4.5371 13.3782C5.10739 13.8825 5.77245 14.2682 6.49346 14.5127L6.7771 16.2C6.81644 16.4241 6.93353 16.6272 7.10778 16.7735C7.28203 16.9198 7.50229 17 7.72982 17H8.99527C9.22426 17.0012 9.44613 16.9205 9.62083 16.7724C9.79554 16.6244 9.91157 16.4188 9.948 16.1927L10.2316 14.5055C10.9532 14.2588 11.6183 13.8706 12.188 13.3636L13.788 13.9673C14.0035 14.0458 14.2398 14.0459 14.4553 13.9674C14.6708 13.8889 14.8517 13.7369 14.9662 13.5382L15.5989 12.4473C15.7118 12.2473 15.7511 12.0142 15.7099 11.7883C15.6687 11.5624 15.5497 11.3581 15.3734 11.2109L14.0644 10.1345Z" stroke="white" stroke-linecap="round" stroke-linejoin="round"/>
<path d="M8.36248 11.182C9.56746 11.182 10.5443 10.2052 10.5443 9.00017C10.5443 7.79519 9.56746 6.81836 8.36248 6.81836C7.1575 6.81836 6.18066 7.79519 6.18066 9.00017C6.18066 10.2052 7.1575 11.182 8.36248 11.182Z" stroke="white" stroke-linecap="round" stroke-linejoin="round"/>
</svg>
